<?xml version="1.0" encoding="utf-8"?>
<svg version="1.1" xmlns:xlink="http://www.w3.org/1999/xlink" width="14px" height="16px" xmlns="http://www.w3.org/2000/svg">
  <g transform="matrix(1 0 0 1 -239 -691 )">
    <path d="M 13.3613127395148 13.464967639881  C 13.3613127395148 12.2580531644345  12.416154609889 11.2778031071429  11.2489412685033 11.2778031071429  C 10.6596408695518 11.2778031071429  10.1244308435444 11.5309607872024  9.74010449640214 11.934246843006  L 4.62429379769737 8.99644038020834  C 4.7751774765625 8.69618361160714  4.86627704594984 8.36060250520834  4.86627704594984 7.99852817113095  C 4.86627704594984 7.78363852083333  4.82642097296464 7.58052363839286  4.77233060002056 7.38329615699405  L 9.81412288928865 4.14523290848214  C 10.1899086564556 4.49553247470238  10.682415749486 4.71336581696429  11.223319495477 4.71336581696429  C 12.3905328368627 4.71336581696429  13.341384686472 3.73017206770833  13.341384686472 2.52325759226191  C 13.341384686472 1.31634311681548  12.3905328534128 0.333149350446429  11.2233195120271 0.333149350446429  C 10.0561061706414 0.333149350446429  9.10525432103207 1.31634309970238  9.10525432103207 2.52325757514881  C 9.10525432103207 2.77347154613095  9.1536509739926 3.00896705729167  9.22766938342928 3.23268780059524  L 4.23142688712993 6.43837040327381  C 3.84994739997944 6.04980280729167  3.32612483048931 5.80547622023809  2.74536501151316 5.80547622023809  C 1.57815167012747 5.80547622023809  0.627299820518092 6.78866996949405  0.627299820518092 7.99558444494047  C 0.627299820518092 9.2024989203869  1.57815167012747 10.1856926696429  2.74536501151316 10.1856926696429  C 3.16954741509046 10.1856926696429  3.56526121875 10.0532264456845  3.89549719294819 9.82950571949405  L 9.21058820692845 12.8821162544643  C 9.15934469397615 13.0705126599702  9.12518235752467 13.2618527574405  9.12518235752467 13.464967639881  C 9.12518235752467 14.6718821153274  10.076034207134 15.6550758645833  11.2432475485197 15.6550758645833  C 12.4104608899054 15.6550758645833  13.3613127395148 14.6718821153274  13.3613127395148 13.464967639881  Z M 10.1642869165296 2.52325757514881  C 10.1642869165296 1.91980032886905  10.6397128330592 1.42820346279762  11.2233195120271 1.42820346279762  C 11.8069261909951 1.42820346279762  12.2823521075247 1.91980032886905  12.2823521075247 2.52325757514881  C 12.2823521075247 3.12671482142857  11.8069261909951 3.6183116875  11.2233195120271 3.6183116875  C 10.6397128330592 3.6183116875  10.1642869165296 3.12671482142857  10.1642869165296 2.52325757514881  Z M 2.74821187150493 9.09358226636905  C 2.16460519253701 9.09358226636905  1.6891792760074 8.60198540029762  1.6891792760074 7.99852815401786  C 1.6891792760074 7.39507090773809  2.16460519253701 6.90347404166667  2.74821187150493 6.90347404166667  C 3.33181855047286 6.90347404166667  3.80724446700247 7.3950709077381  3.80724446700247 7.99852815401786  C 3.80724446700247 8.60198540029762  3.33181855047286 9.09358226636905  2.74821187150493 9.09358226636905  Z M 12.3079738640008 13.4679113318452  C 12.3079738640008 14.0743122700893  11.8325479474712 14.5629654441964  11.2489412685033 14.5629654441964  C 10.6653345895354 14.5629654441964  10.1899086730058 14.071368578125  10.1899086730058 13.4679113318452  C 10.1899086730058 12.8644540855655  10.6653345895354 12.372857219494  11.2489412685033 12.372857219494  C 11.8325479474712 12.372857219494  12.3079738640008 12.8644540855655  12.3079738640008 13.4679113318452  Z " fill-rule="nonzero" fill="#272636" stroke="none" transform="matrix(1 0 0 1 239 691 )" />
  </g>
</svg>