<?xml version="1.0" encoding="utf-8"?>
<svg version="1.1" xmlns:xlink="http://www.w3.org/1999/xlink" width="18px" height="15px" xmlns="http://www.w3.org/2000/svg">
  <g transform="matrix(1 0 0 1 -75 -691 )">
    <path d="M 4.8779296875 4.1771582733813  C 5.0244140625 4.0302757793765  5.09765625 3.83393285371703  5.09765625 3.58812949640288  C 5.09765625 3.34232613908873  5.0244140625 3.14448441247002  4.8779296875 2.99460431654676  C 4.7314453125 2.8447242206235  4.5380859375 2.76978417266187  4.2978515625 2.76978417266187  C 4.0458984375 2.76978417266187  3.8232421875 2.84622302158273  3.6298828125 2.99910071942446  C 3.4365234375 3.15197841726619  3.33984375 3.34832134292566  3.33984375 3.58812949640288  C 3.33984375 3.82194244604317  3.4365234375 4.01528776978417  3.6298828125 4.1681654676259  C 3.8232421875 4.32104316546763  4.0458984375 4.39748201438849  4.2978515625 4.39748201438849  C 4.5380859375 4.39748201438849  4.7314453125 4.32404076738609  4.8779296875 4.1771582733813  Z M 11.40380859375 8.60611510791367  C 11.55322265625 8.4742206235012  11.6279296875 8.32134292565947  11.6279296875 8.14748201438849  C 11.6279296875 7.97961630695443  11.55322265625 7.82973621103118  11.40380859375 7.6978417266187  C 11.25439453125 7.56594724220623  11.0625 7.5  10.828125 7.5  C 10.669921875 7.5  10.52490234375 7.56744604316547  10.39306640625 7.7023381294964  C 10.26123046875 7.83723021582734  10.1953125 7.98561151079137  10.1953125 8.14748201438849  C 10.1953125 8.31534772182254  10.26123046875 8.46672661870504  10.39306640625 8.60161870503597  C 10.52490234375 8.73651079136691  10.669921875 8.80395683453238  10.828125 8.80395683453238  C 11.0625 8.80395683453238  11.25439453125 8.73800959232614  11.40380859375 8.60611510791367  Z M 9.33837890625 4.1771582733813  C 9.48193359375 4.0302757793765  9.5537109375 3.83393285371703  9.5537109375 3.58812949640288  C 9.5537109375 3.34232613908873  9.48193359375 3.14448441247002  9.33837890625 2.99460431654676  C 9.19482421875 2.8447242206235  9.0029296875 2.76978417266187  8.7626953125 2.76978417266187  C 8.5107421875 2.76978417266187  8.2880859375 2.84622302158273  8.0947265625 2.99910071942446  C 7.9013671875 3.15197841726619  7.8046875 3.34832134292566  7.8046875 3.58812949640288  C 7.8046875 3.82194244604317  7.9013671875 4.01528776978417  8.0947265625 4.1681654676259  C 8.2880859375 4.32104316546763  8.5107421875 4.39748201438849  8.7626953125 4.39748201438849  C 9.0029296875 4.39748201438849  9.19482421875 4.32404076738609  9.33837890625 4.1771582733813  Z M 14.90625 8.60611510791367  C 15.05859375 8.4742206235012  15.134765625 8.32134292565947  15.134765625 8.14748201438849  C 15.134765625 7.97961630695443  15.05859375 7.82973621103118  14.90625 7.6978417266187  C 14.75390625 7.56594724220623  14.5634765625 7.5  14.3349609375 7.5  C 14.1767578125 7.5  14.03173828125 7.56744604316547  13.89990234375 7.7023381294964  C 13.76806640625 7.83723021582734  13.7021484375 7.98561151079137  13.7021484375 8.14748201438849  C 13.7021484375 8.31534772182254  13.76806640625 8.46672661870504  13.89990234375 8.60161870503597  C 14.03173828125 8.73651079136691  14.1767578125 8.80395683453238  14.3349609375 8.80395683453238  C 14.5634765625 8.80395683453238  14.75390625 8.73800959232614  14.90625 8.60611510791367  Z M 11.59716796875 2.23471223021583  C 12.21533203125 2.93315347721822  12.615234375 3.71402877697842  12.796875 4.5773381294964  C 12.615234375 4.55335731414868  12.41015625 4.54136690647482  12.181640625 4.54136690647482  C 11.19140625 4.54136690647482  10.2802734375 4.77218225419664  9.4482421875 5.23381294964029  C 8.6162109375 5.69544364508393  7.96142578125 6.32044364508393  7.48388671875 7.10881294964029  C 7.00634765625 7.89718225419664  6.767578125 8.75899280575539  6.767578125 9.69424460431655  C 6.767578125 10.1618705035971  6.8349609375 10.6175059952038  6.9697265625 11.0611510791367  C 6.7646484375 11.0791366906475  6.5654296875 11.0881294964029  6.3720703125 11.0881294964029  C 6.2197265625 11.0881294964029  6.0732421875 11.0836330935252  5.9326171875 11.0746402877698  C 5.7919921875 11.0656474820144  5.630859375 11.0461630695444  5.44921875 11.0161870503597  C 5.267578125 10.9862110311751  5.13720703125 10.9652278177458  5.05810546875 10.9532374100719  C 4.97900390625 10.9412470023981  4.8193359375 10.9097721822542  4.5791015625 10.8588129496403  C 4.3388671875 10.8078537170264  4.1923828125 10.7763788968825  4.1396484375 10.7643884892086  L 1.916015625 11.9064748201439  L 2.548828125 9.94604316546762  C 0.849609375 8.72901678657074  0 7.26019184652278  0 5.53956834532374  C 0 4.52637889688249  0.28564453125 3.59412470023981  0.85693359375 2.74280575539568  C 1.42822265625 1.89148681055156  2.20166015625 1.22152278177458  3.17724609375 0.732913669064749  C 4.15283203125 0.244304556354915  5.2177734375 0  6.3720703125 0  C 7.4033203125 0  8.37744140625 0.197841726618705  9.29443359375 0.593525179856115  C 10.21142578125 0.989208633093526  10.97900390625 1.53627098321343  11.59716796875 2.23471223021583  Z M 17.24853515625 7.25269784172662  C 17.74951171875 7.98111510791367  18 8.77098321342926  18 9.62230215827338  C 18 10.3237410071942  17.79931640625 10.9937050359712  17.39794921875 11.6321942446043  C 16.99658203125 12.2706834532374  16.453125 12.8507194244604  15.767578125 13.3723021582734  L 16.2509765625 15  L 14.501953125 14.0197841726619  C 13.623046875 14.2416067146283  12.984375 14.3525179856115  12.5859375 14.3525179856115  C 11.595703125 14.3525179856115  10.6845703125 14.1411870503597  9.8525390625 13.7185251798561  C 9.0205078125 13.2958633093525  8.36572265625 12.7218225419664  7.88818359375 11.9964028776978  C 7.41064453125 11.2709832134293  7.171875 10.4796163069544  7.171875 9.62230215827338  C 7.171875 8.76498800959233  7.41064453125 7.97362110311751  7.88818359375 7.24820143884892  C 8.36572265625 6.52278177458033  9.0205078125 5.94874100719424  9.8525390625 5.52607913669065  C 10.6845703125 5.10341726618705  11.595703125 4.89208633093525  12.5859375 4.89208633093525  C 13.529296875 4.89208633093525  14.4169921875 5.10341726618705  15.2490234375 5.52607913669065  C 16.0810546875 5.94874100719424  16.74755859375 6.52428057553957  17.24853515625 7.25269784172662  Z " fill-rule="nonzero" fill="#000000" stroke="none" transform="matrix(1 0 0 1 75 691 )" />
  </g>
</svg>