<?xml version="1.0" encoding="utf-8"?>
<svg version="1.1" xmlns:xlink="http://www.w3.org/1999/xlink" width="23px" height="23px" xmlns="http://www.w3.org/2000/svg">
  <g transform="matrix(1 0 0 1 -9 -3 )">
    <path d="M 20.5 3  C 26.94 3  32 8.06  32 14.5  C 32 20.94  26.94 26  20.5 26  C 14.06 26  9 20.94  9 14.5  C 9 8.06  14.06 3  20.5 3  Z " fill-rule="nonzero" fill="#ec808d" stroke="none" />
    <path d="M 20.5 3.5  C 26.66 3.5  31.5 8.34  31.5 14.5  C 31.5 20.66  26.66 25.5  20.5 25.5  C 14.34 25.5  9.5 20.66  9.5 14.5  C 9.5 8.34  14.34 3.5  20.5 3.5  Z " stroke-width="1" stroke="#ec808d" fill="none" />
  </g>
</svg>