<?xml version="1.0" encoding="utf-8"?>
<svg version="1.1" xmlns:xlink="http://www.w3.org/1999/xlink" width="15px" height="15px" xmlns="http://www.w3.org/2000/svg">
  <g transform="matrix(1 0 0 1 -13 -7 )">
    <path d="M 14.5165720275879 7.52630064697265  C 14.5177689331055 7.20284990844726  14.2558648864746 6.93978043212891  13.9330126098633 6.93861502075195  L 8.12227018432617 6.94044190063477  L 8.12227018432617 1.10626512451172  C 8.12227018432617 0.782814404296875  7.8597676574707 0.520311877441406  7.53631693725586 0.520311877441406  C 7.21286621704102 0.520311877441406  6.95039518432617 0.782814404296875  6.95039518432617 1.10626512451172  L 6.95039518432617 6.9363471862793  L 1.0476477355957 6.93310292358398  C 1.04704927368164 6.93310292358398  1.04648232421875 6.93310292358398  1.04588386230469 6.93310292358398  C 0.723031585693359 6.93310292358398  0.461127520751952 7.19384155883789  0.459930615234374 7.51729229736328  C 0.458166741943359 7.84074301757813  0.72010230102539 8.10381251220703  1.04352152709961 8.10497792358398  L 6.95036369018555 8.1082221862793  L 6.95036369018555 13.9523522644043  C 6.95036369018555 14.2763699523926  7.21286621704101 14.5383055114746  7.53628544311523 14.5383055114746  C 7.85970466918945 14.5383055114746  8.12223869018555 14.2764014465332  8.12223869018555 13.9523522644043  L 8.12223869018555 8.11231690063476  L 13.9282879394531 8.11049002075195  C 13.9294533508301 8.11049002075195  13.9300518127441 8.11049002075195  13.9306187805176 8.11049002075195  C 14.2534710571289 8.11049002075195  14.5153751220703 7.84975138549804  14.5165720275879 7.52630064697265  Z " fill-rule="nonzero" fill="#ffffff" stroke="none" transform="matrix(1 0 0 1 13 7 )" />
  </g>
</svg>