<?xml version="1.0" encoding="utf-8"?>
<svg version="1.1" xmlns:xlink="http://www.w3.org/1999/xlink" width="31px" height="31px" xmlns="http://www.w3.org/2000/svg">
  <g transform="matrix(1 0 0 1 -192 -612 )">
    <path d="M 207.5 612  C 216.18 612  223 618.82  223 627.5  C 223 636.18  216.18 643  207.5 643  C 198.82 643  192 636.18  192 627.5  C 192 618.82  198.82 612  207.5 612  Z " fill-rule="nonzero" fill="#ffffff" stroke="none" />
    <path d="M 207.5 612.5  C 215.9 612.5  222.5 619.1  222.5 627.5  C 222.5 635.9  215.9 642.5  207.5 642.5  C 199.1 642.5  192.5 635.9  192.5 627.5  C 192.5 619.1  199.1 612.5  207.5 612.5  Z " stroke-width="1" stroke="#797979" fill="none" />
  </g>
</svg>