<?xml version="1.0" encoding="utf-8"?>
<svg version="1.1" xmlns:xlink="http://www.w3.org/1999/xlink" width="15px" height="27px" xmlns="http://www.w3.org/2000/svg">
  <g transform="matrix(1 0 0 1 -14 -39 )">
    <path d="M 14.7422680412371 1.62324649298597  C 14.914089347079 1.80360721442885  15 2.01102204408817  15 2.24549098196393  C 15 2.47995991983968  14.914089347079 2.687374749499  14.7422680412371 2.86773547094188  L 4.61340206185567 13.5  L 14.7422680412371 24.1322645290581  C 14.914089347079 24.312625250501  15 24.5200400801603  15 24.7545090180361  C 15 24.9889779559118  14.914089347079 25.1963927855711  14.7422680412371 25.376753507014  L 13.4536082474227 26.7294589178357  C 13.2817869415808 26.9098196392786  13.0841924398625 27  12.860824742268 27  C 12.6374570446735 27  12.4398625429553 26.9098196392786  12.2680412371134 26.7294589178357  L 0.257731958762887 14.122244488978  C 0.0859106529209623 13.9418837675351  0 13.7344689378758  0 13.5  C 0 13.2655310621242  0.0859106529209623 13.0581162324649  0.257731958762887 12.877755511022  L 12.2680412371134 0.270541082164329  C 12.4398625429553 0.090180360721442  12.6374570446735 0  12.860824742268 0  C 13.0841924398625 0  13.2817869415808 0.090180360721442  13.4536082474227 0.270541082164329  L 14.7422680412371 1.62324649298597  Z " fill-rule="nonzero" fill="#000000" stroke="none" transform="matrix(1 0 0 1 14 39 )" />
  </g>
</svg>